<mxfile host="app.diagrams.net" modified="2024-06-23T14:19:44.022Z" agent="Mozilla/5.0 (Windows NT 10.0; Win64; x64) AppleWebKit/537.36 (KHTML, like Gecko) Chrome/126.0.0.0 Safari/537.36" version="24.6.2" etag="n0Wi1s66N9-xCeu2Mwss" type="github">
  <diagram name="Page-1" id="aD3on_WNPultOrN76Y02">
    <mxGraphModel>
      <root>
        <mxCell id="0" />
        <mxCell id="1" parent="0" />
      </root>
    </mxGraphModel>
  </diagram>
</mxfile>
